<svg xmlns="http://www.w3.org/2000/svg" width="40" height="40" viewBox="0 0 40 40">
  <defs>
    <linearGradient id="waveGradient" x1="0%" y1="0%" x2="100%" y2="100%">
      <stop offset="0%" style="stop-color:#7E9CD8"/>
      <stop offset="100%" style="stop-color:#658594"/>
    </linearGradient>
  </defs>

  <!-- Background -->
  <circle cx="20" cy="20" r="18" fill="#1F1F28"/>

  <!-- Large wave -->
  <path d="M3 22 Q7 18 11 20 Q15 22 17 18 Q19 14 23 18 L23 37 L3 37 Z" fill="url(#waveGradient)"/>

  <!-- Wave crest foam -->
  <path d="M11 20 Q13 18 15 19 Q17 20 17 18" stroke="#C8C093" stroke-width="1.5" fill="none" stroke-linecap="round"/>
  <circle cx="13" cy="19" r="0.8" fill="#DCD7BA" opacity="0.7"/>
  <circle cx="15" cy="18.5" r="0.6" fill="#DCD7BA" opacity="0.6"/>

  <!-- Small wave -->
  <path d="M23 24 Q27 22 31 24 Q34 25 37 24 L37 37 L23 37 Z" fill="#7AA89F" opacity="0.85"/>

  <!-- Small wave foam -->
  <path d="M31 24 Q32.5 23 34 24" stroke="#C8C093" stroke-width="1" fill="none" stroke-linecap="round"/>
  <circle cx="32" cy="23.5" r="0.5" fill="#DCD7BA" opacity="0.6"/>

  <!-- Mount Fuji -->
  <path d="M15 28 L19 23 L23 28 Z" fill="#DCD7BA" opacity="0.5"/>
  <path d="M18 25 L19 23 L20 25 Z" fill="#C8C093" opacity="0.6"/>
</svg>