<svg xmlns="http://www.w3.org/2000/svg" width="40" height="40" viewBox="0 0 40 40">
  <!-- Background -->
  <circle cx="20" cy="20" r="18" fill="#1F1F28"/>

  <!-- Back wave layer -->
  <path d="M2 28 Q6 26 10 28 Q14 30 18 27 Q22 24 26 28 Q30 31 34 28 Q36 27 38 28 L38 38 L2 38 Z"
        fill="#658594" opacity="0.7"/>

  <!-- Middle wave layer -->
  <path d="M2 24 Q8 20 14 23 Q20 26 26 22 Q32 18 38 22 L38 38 L2 38 Z"
        fill="#7AA89F" opacity="0.75"/>

  <!-- Front large wave -->
  <path d="M2 20 Q6 14 10 18 Q14 22 18 15 Q22 8 26 18 L26 38 L2 38 Z"
        fill="#7E9CD8" opacity="0.85"/>

  <!-- Small front wave -->
  <path d="M26 22 Q30 18 34 21 Q36 22 38 20 L38 38 L26 38 Z"
        fill="#7E9CD8" opacity="0.75"/>
</svg>